<svg width="33" height="32" viewBox="0 0 33 32" fill="none" xmlns="http://www.w3.org/2000/svg">
<path d="M16.5 0C14.3332 0 12.1876 0.424127 10.1857 1.24817C8.18385 2.0722 6.3649 3.28001 4.83274 4.80264C1.73839 7.87772 0 12.0484 0 16.3972C0 23.6448 4.7355 29.7938 11.286 31.9746C12.111 32.1058 12.375 31.5975 12.375 31.1547V28.3836C7.8045 29.3674 6.831 26.1864 6.831 26.1864C6.072 24.2843 4.9995 23.776 4.9995 23.776C3.498 22.7594 5.115 22.7922 5.115 22.7922C6.765 22.9069 7.6395 24.4811 7.6395 24.4811C9.075 26.9734 11.5005 26.2356 12.441 25.842C12.5895 24.7762 13.0185 24.0547 13.4805 23.6448C9.8175 23.2349 5.973 21.8247 5.973 15.5774C5.973 13.7573 6.6 12.2979 7.6725 11.1337C7.5075 10.7238 6.93 9.01848 7.8375 6.80485C7.8375 6.80485 9.2235 6.36213 12.375 8.47737C13.6785 8.11663 15.0975 7.93626 16.5 7.93626C17.9025 7.93626 19.3215 8.11663 20.625 8.47737C23.7765 6.36213 25.1625 6.80485 25.1625 6.80485C26.07 9.01848 25.4925 10.7238 25.3275 11.1337C26.4 12.2979 27.027 13.7573 27.027 15.5774C27.027 21.8411 23.166 23.2185 19.4865 23.6284C20.0805 24.1367 20.625 25.137 20.625 26.6619V31.1547C20.625 31.5975 20.889 32.1222 21.7305 31.9746C28.281 29.7774 33 23.6448 33 16.3972C33 14.2439 32.5732 12.1117 31.744 10.1223C30.9148 8.13288 29.6994 6.32526 28.1673 4.80264C26.6351 3.28001 24.8161 2.0722 22.8143 1.24817C20.8124 0.424127 18.6668 0 16.5 0Z" fill="black"/>
</svg>
