<svg width="25" height="25" viewBox="0 0 25 25" fill="none" xmlns="http://www.w3.org/2000/svg">
<path d="M8.41225 0.685163C5.88497 1.5619 3.70545 3.22598 2.19382 5.43297C0.682187 7.63996 -0.0818692 10.2735 0.0138752 12.9469C0.109619 15.6202 1.06012 18.1923 2.72576 20.2855C4.3914 22.3787 6.68438 23.8826 9.26791 24.5763C11.3624 25.1168 13.5569 25.1405 15.6626 24.6455C17.5702 24.217 19.3338 23.3005 20.7807 21.9856C22.2867 20.5754 23.3798 18.7813 23.9425 16.7964C24.5539 14.6378 24.6628 12.3678 24.2606 10.1606H12.4988V15.0396H19.3105C19.1744 15.8178 18.8826 16.5605 18.4528 17.2233C18.0229 17.8861 17.4637 18.4553 16.8087 18.897C15.9771 19.4474 15.0394 19.8176 14.056 19.9838C13.0698 20.1673 12.0583 20.1673 11.0721 19.9838C10.0725 19.7774 9.12689 19.3648 8.29566 18.7725C6.96011 17.8271 5.95729 16.484 5.43031 14.9349C4.89456 13.3567 4.89456 11.6459 5.43031 10.0677C5.80542 8.96153 6.42554 7.95435 7.24437 7.12135C8.18143 6.15058 9.36777 5.45667 10.6732 5.11575C11.9787 4.77483 13.3528 4.80008 14.6449 5.18872C15.6543 5.49842 16.5773 6.03978 17.3403 6.7696C18.1084 6.00551 18.8751 5.23944 19.6405 4.47139C20.0357 4.05838 20.4665 3.66514 20.8558 3.24225C19.691 2.15839 18.3237 1.31496 16.8325 0.760256C14.1167 -0.225843 11.1452 -0.252343 8.41225 0.685163Z" fill="white"/>
<path d="M8.41218 0.685269C11.1449 -0.252875 14.1164 -0.227072 16.8324 0.758385C18.3239 1.31686 19.6905 2.16435 20.8538 3.25223C20.4585 3.67512 20.0416 4.07034 19.6385 4.48137C18.8717 5.24679 18.1057 6.00957 17.3402 6.76971C16.5773 6.03989 15.6542 5.49852 14.6448 5.18882C13.3532 4.79882 11.9791 4.77211 10.6733 5.11164C9.36748 5.45116 8.18041 6.1438 7.24233 7.11355C6.42349 7.94655 5.80338 8.95374 5.42826 10.0599L1.33179 6.88827C2.79808 3.98055 5.33686 1.75637 8.41218 0.685269Z" fill="#E33629"/>
<path d="M0.245032 10.0302C0.465051 8.93893 0.830604 7.88215 1.33189 6.88818L5.42837 10.0677C4.89262 11.6459 4.89262 13.3567 5.42837 14.9349C4.06353 15.9888 2.69804 17.048 1.33189 18.1125C0.0773603 15.6153 -0.30525 12.7701 0.245032 10.0302Z" fill="#F8BD00"/>
<path d="M12.4987 10.1587H24.2605C24.6626 12.3659 24.5538 14.6359 23.9423 16.7945C23.3796 18.7794 22.2865 20.5735 20.7806 21.9837C19.4585 20.9522 18.1306 19.9286 16.8086 18.897C17.464 18.4549 18.0234 17.8851 18.4533 17.2216C18.8832 16.5581 19.1747 15.8146 19.3103 15.0357H12.4987C12.4967 13.4114 12.4987 11.785 12.4987 10.1587Z" fill="#587DBD"/>
<path d="M1.32983 18.1125C2.69598 17.0586 4.06148 15.9994 5.42631 14.9349C5.95434 16.4846 6.95859 17.8278 8.29562 18.7725C9.12944 19.3621 10.0771 19.7714 11.078 19.974C12.0642 20.1574 13.0757 20.1574 14.0619 19.974C15.0453 19.8078 15.983 19.4376 16.8146 18.8872C18.1366 19.9187 19.4646 20.9423 20.7866 21.9738C19.3399 23.2894 17.5763 24.2066 15.6685 24.6357C13.5628 25.1307 11.3683 25.1069 9.27379 24.5665C7.61722 24.1242 6.06988 23.3445 4.72874 22.2762C3.30936 21.149 2.14999 19.7288 1.32983 18.1125Z" fill="#319F43"/>
</svg>
