<svg width="55" height="34" viewBox="0 0 55 34" fill="none" xmlns="http://www.w3.org/2000/svg">
<path fill-rule="evenodd" clip-rule="evenodd" d="M0 2.55001C0 1.87371 0.268661 1.2251 0.746881 0.74688C1.2251 0.268661 1.87371 0 2.55001 0H51.8502C52.5265 0 53.1751 0.268661 53.6533 0.74688C54.1315 1.2251 54.4002 1.87371 54.4002 2.55001C54.4002 3.22631 54.1315 3.87492 53.6533 4.35314C53.1751 4.83136 52.5265 5.10002 51.8502 5.10002H2.55001C1.87371 5.10002 1.2251 4.83136 0.746881 4.35314C0.268661 3.87492 0 3.22631 0 2.55001ZM0 17.0001C0 16.3238 0.268661 15.6752 0.746881 15.1969C1.2251 14.7187 1.87371 14.4501 2.55001 14.4501H51.8502C52.5265 14.4501 53.1751 14.7187 53.6533 15.1969C54.1315 15.6752 54.4002 16.3238 54.4002 17.0001C54.4002 17.6764 54.1315 18.325 53.6533 18.8032C53.1751 19.2814 52.5265 19.5501 51.8502 19.5501H2.55001C1.87371 19.5501 1.2251 19.2814 0.746881 18.8032C0.268661 18.325 0 17.6764 0 17.0001ZM2.55001 28.9001C1.87371 28.9001 1.2251 29.1688 0.746881 29.647C0.268661 30.1252 0 30.7738 0 31.4501C0 32.1264 0.268661 32.775 0.746881 33.2533C1.2251 33.7315 1.87371 34.0001 2.55001 34.0001H51.8502C52.5265 34.0001 53.1751 33.7315 53.6533 33.2533C54.1315 32.775 54.4002 32.1264 54.4002 31.4501C54.4002 30.7738 54.1315 30.1252 53.6533 29.647C53.1751 29.1688 52.5265 28.9001 51.8502 28.9001H2.55001Z" fill="black"/>
</svg>
