<svg width="35" height="35" viewBox="0 0 35 35" fill="none" xmlns="http://www.w3.org/2000/svg">
<rect width="35" height="35" rx="7" fill="#FEE500"/>
<path d="M17.6005 6C25.1139 6 31.2036 10.7464 31.2036 16.6029C31.2036 22.4582 25.1139 27.2046 17.6018 27.2046C16.8538 27.2049 16.1065 27.1573 15.3646 27.0621L9.65447 30.7967C9.00547 31.14 8.77618 31.1025 9.04303 30.2617L10.1985 25.4972C6.46776 23.6059 4 20.3285 4 16.6029C4 10.7477 10.0884 6 17.6018 6M25.2551 16.441L27.1593 14.5963C27.2692 14.4822 27.3305 14.3299 27.3303 14.1715C27.3301 14.0131 27.2685 13.8609 27.1583 13.7471C27.0482 13.6332 26.8981 13.5666 26.7398 13.5612C26.5815 13.5558 26.4272 13.612 26.3096 13.7181L23.812 16.1353V14.1378C23.812 13.9756 23.7476 13.8201 23.6329 13.7054C23.5183 13.5908 23.3627 13.5263 23.2006 13.5263C23.0384 13.5263 22.8829 13.5908 22.7682 13.7054C22.6536 13.8201 22.5891 13.9756 22.5891 14.1378V17.4501C22.5663 17.5446 22.5663 17.6432 22.5891 17.7377V19.6018C22.5891 19.764 22.6536 19.9195 22.7682 20.0342C22.8829 20.1488 23.0384 20.2132 23.2006 20.2132C23.3627 20.2132 23.5183 20.1488 23.6329 20.0342C23.7476 19.9195 23.812 19.764 23.812 19.6018V17.8362L24.3651 17.3012L26.215 19.9347C26.2612 20.0005 26.3199 20.0565 26.3877 20.0996C26.4555 20.1426 26.5312 20.1719 26.6103 20.1857C26.6895 20.1996 26.7706 20.1977 26.849 20.1802C26.9274 20.1627 27.0016 20.1299 27.0674 20.0837C27.1331 20.0375 27.1891 19.9788 27.2322 19.911C27.2753 19.8432 27.3046 19.7675 27.3184 19.6884C27.3322 19.6092 27.3303 19.5281 27.3128 19.4497C27.2953 19.3713 27.2625 19.2971 27.2163 19.2313L25.2551 16.441ZM21.4233 18.9334H19.532V14.1572C19.5247 14.0001 19.4572 13.8518 19.3435 13.7431C19.2297 13.6345 19.0785 13.5739 18.9212 13.5739C18.7639 13.5739 18.6126 13.6345 18.4989 13.7431C18.3851 13.8518 18.3176 14.0001 18.3104 14.1572V19.5448C18.3104 19.8816 18.5824 20.1562 18.9205 20.1562H21.4233C21.5854 20.1562 21.7409 20.0918 21.8556 19.9772C21.9703 19.8625 22.0347 19.707 22.0347 19.5448C22.0347 19.3826 21.9703 19.2271 21.8556 19.1125C21.7409 18.9978 21.5854 18.9334 21.4233 18.9334ZM13.836 17.5201L14.7377 15.3075L15.5641 17.5188L13.836 17.5201ZM17.1044 18.1509L17.107 18.1302C17.1067 17.9762 17.0478 17.828 16.9424 17.7157L15.5874 14.0885C15.5306 13.9157 15.4224 13.7643 15.2773 13.6546C15.1322 13.5449 14.957 13.482 14.7752 13.4745C14.5921 13.4737 14.4131 13.5287 14.262 13.6321C14.1109 13.7356 13.9948 13.8826 13.9293 14.0536L11.7763 19.3324C11.715 19.4825 11.7158 19.6508 11.7786 19.8004C11.8414 19.9499 11.9611 20.0684 12.1112 20.1297C12.2613 20.191 12.4297 20.1902 12.5792 20.1274C12.7288 20.0646 12.8472 19.945 12.9085 19.7948L13.3386 18.7417H16.0201L16.4061 19.778C16.4325 19.8554 16.4741 19.9268 16.5285 19.9879C16.5829 20.049 16.6491 20.0986 16.723 20.1336C16.7969 20.1687 16.8771 20.1886 16.9589 20.1921C17.0406 20.1956 17.1222 20.1826 17.1989 20.154C17.2755 20.1254 17.3457 20.0817 17.4051 20.0255C17.4646 19.9693 17.5121 19.9017 17.545 19.8268C17.5778 19.7518 17.5953 19.6711 17.5964 19.5893C17.5975 19.5075 17.5822 19.4263 17.5513 19.3505L17.1044 18.1509ZM12.7997 14.1637C12.7997 14.0017 12.7355 13.8464 12.6211 13.7318C12.5067 13.6172 12.3515 13.5526 12.1896 13.5522H7.98598C7.82381 13.5522 7.66829 13.6167 7.55363 13.7313C7.43896 13.846 7.37454 14.0015 7.37454 14.1637C7.37454 14.3258 7.43896 14.4814 7.55363 14.596C7.66829 14.7107 7.82381 14.7751 7.98598 14.7751H9.48865V19.6148C9.48865 19.7769 9.55307 19.9324 9.66774 20.0471C9.7824 20.1618 9.93792 20.2262 10.1001 20.2262C10.2622 20.2262 10.4178 20.1618 10.5324 20.0471C10.6471 19.9324 10.7115 19.7769 10.7115 19.6148V14.7751H12.1883C12.3504 14.7751 12.506 14.7107 12.6206 14.596C12.7353 14.4814 12.7997 14.3258 12.7997 14.1637Z" fill="#381E1F"/>
</svg>
