<svg width="36" height="46" viewBox="0 0 36 46" fill="none" xmlns="http://www.w3.org/2000/svg">
<path d="M35.0326 3.8784C35.3416 3.65894 35.5832 3.40079 35.7435 3.11868C35.9039 2.83657 35.9799 2.53603 35.9672 2.23421C35.9545 1.93239 35.8533 1.63521 35.6694 1.35963C35.4855 1.08406 35.2226 0.835484 34.8955 0.628104C34.5685 0.420724 34.1838 0.2586 33.7634 0.150987C33.343 0.0433748 32.8952 -0.00761852 32.4454 0.000919465C31.9957 0.00945745 31.5528 0.0773592 31.1422 0.200748C30.7315 0.324137 30.3611 0.500596 30.0521 0.72005L0.936303 21.4079C0.335024 21.8347 0 22.3998 0 22.9871C0 23.5744 0.335024 24.1395 0.936303 24.5663L30.0521 45.2564C30.359 45.4807 30.7294 45.6618 31.1415 45.7892C31.5537 45.9166 31.9995 45.9877 32.453 45.9986C32.9065 46.0094 33.3587 45.9596 33.7833 45.8521C34.2079 45.7447 34.5964 45.5817 34.9264 45.3726C35.2563 45.1636 35.521 44.9126 35.7052 44.6343C35.8894 44.3559 35.9893 44.0558 35.9992 43.7514C36.0091 43.447 35.9287 43.1442 35.7628 42.8608C35.5968 42.5774 35.3486 42.3189 35.0326 42.1004L8.13646 22.9871L35.0326 3.8784Z" fill="#DA8446"/>
</svg>
