<svg width="32" height="40" viewBox="0 0 32 40" fill="none" xmlns="http://www.w3.org/2000/svg">
<path d="M30.4631 3.37252C30.7318 3.18169 30.9419 2.95721 31.0813 2.7119C31.2208 2.46658 31.2869 2.20524 31.2758 1.94279C31.2647 1.68034 31.1768 1.42192 31.0169 1.18229C30.857 0.942659 30.6283 0.726508 30.344 0.546178C30.0596 0.365847 29.7251 0.224869 29.3595 0.131293C28.994 0.0377173 28.6045 -0.0066248 28.2134 0.000799535C27.8223 0.00822387 27.4372 0.0672689 27.0801 0.174563C26.723 0.281858 26.4009 0.435301 26.1322 0.626131L0.814177 18.6156C0.291325 18.9867 0 19.478 0 19.9888C0 20.4995 0.291325 20.9908 0.814177 21.362L26.1322 39.3534C26.3992 39.5484 26.7212 39.7059 27.0796 39.8167C27.438 39.9274 27.8256 39.9893 28.22 39.9987C28.6143 40.0081 29.0075 39.9649 29.3768 39.8714C29.746 39.778 30.0839 39.6363 30.3708 39.4545C30.6577 39.2727 30.8879 39.0544 31.048 38.8124C31.2082 38.5704 31.295 38.3094 31.3036 38.0447C31.3122 37.78 31.2424 37.5167 31.0981 37.2703C30.9538 37.0238 30.7379 36.799 30.4631 36.609L7.07518 19.9888L30.4631 3.37252Z" fill="black"/>
</svg>
