<svg width="32" height="40" viewBox="0 0 32 40" fill="none" xmlns="http://www.w3.org/2000/svg">
<path d="M1.5369 3.37252C1.26818 3.18169 1.0581 2.95721 0.918656 2.7119C0.779211 2.46658 0.713133 2.20524 0.724196 1.94279C0.73526 1.68034 0.823248 1.42192 0.983135 1.18229C1.14302 0.942659 1.37168 0.726508 1.65605 0.546178C1.94042 0.365847 2.27493 0.224869 2.64049 0.131293C3.00605 0.0377173 3.39549 -0.0066248 3.78659 0.000799535C4.17768 0.00822387 4.56277 0.0672689 4.91986 0.174563C5.27695 0.281858 5.59906 0.435301 5.86778 0.626131L31.1858 18.6156C31.7087 18.9867 32 19.478 32 19.9888C32 20.4995 31.7087 20.9908 31.1858 21.362L5.86778 39.3534C5.60083 39.5484 5.2788 39.7059 4.92039 39.8167C4.56199 39.9274 4.17436 39.9893 3.78001 39.9987C3.38566 40.0081 2.99245 39.9649 2.62324 39.8714C2.25402 39.778 1.91615 39.6363 1.62925 39.4545C1.34235 39.2727 1.11214 39.0544 0.95199 38.8124C0.791843 38.5704 0.70495 38.3094 0.696358 38.0447C0.687767 37.78 0.757647 37.5167 0.901942 37.2703C1.04624 37.0238 1.26207 36.799 1.5369 36.609L24.9248 19.9888L1.5369 3.37252Z" fill="black"/>
</svg>
