<svg width="44" height="54" viewBox="0 0 44 54" fill="none" xmlns="http://www.w3.org/2000/svg">
<g filter="url(#filter0_ddd_104_31)">
<path d="M4.96744 3.8784C4.65841 3.65894 4.41682 3.40079 4.25645 3.11868C4.09609 2.83657 4.0201 2.53603 4.03283 2.23421C4.04555 1.93239 4.14674 1.63521 4.33061 1.35963C4.51448 1.08406 4.77743 0.835484 5.10445 0.628104C5.43148 0.420724 5.81617 0.2586 6.23656 0.150987C6.65696 0.0433748 7.10482 -0.00761852 7.55458 0.000919465C8.00434 0.00945745 8.44719 0.0773592 8.85784 0.200748C9.2685 0.324137 9.63891 0.500596 9.94795 0.72005L39.0637 21.4079C39.665 21.8347 40 22.3998 40 22.9871C40 23.5744 39.665 24.1395 39.0637 24.5663L9.94795 45.2564C9.64095 45.4807 9.27062 45.6618 8.85845 45.7892C8.44629 45.9166 8.00051 45.9877 7.54701 45.9986C7.09351 46.0094 6.64132 45.9596 6.21672 45.8521C5.79212 45.7447 5.40357 45.5817 5.07364 45.3726C4.7437 45.1636 4.47896 44.9126 4.29479 44.6343C4.11062 44.3559 4.01069 44.0558 4.00081 43.7514C3.99093 43.447 4.07129 43.1442 4.23723 42.8608C4.40317 42.5774 4.65138 42.3189 4.96744 42.1004L31.8635 22.9871L4.96744 3.8784Z" fill="#DA8446"/>
</g>
<defs>
<filter id="filter0_ddd_104_31" x="0" y="0" width="44" height="54" filterUnits="userSpaceOnUse" color-interpolation-filters="sRGB">
<feFlood flood-opacity="0" result="BackgroundImageFix"/>
<feColorMatrix in="SourceAlpha" type="matrix" values="0 0 0 0 0 0 0 0 0 0 0 0 0 0 0 0 0 0 127 0" result="hardAlpha"/>
<feOffset dy="4"/>
<feGaussianBlur stdDeviation="2"/>
<feComposite in2="hardAlpha" operator="out"/>
<feColorMatrix type="matrix" values="0 0 0 0 0 0 0 0 0 0 0 0 0 0 0 0 0 0 0.25 0"/>
<feBlend mode="normal" in2="BackgroundImageFix" result="effect1_dropShadow_104_31"/>
<feColorMatrix in="SourceAlpha" type="matrix" values="0 0 0 0 0 0 0 0 0 0 0 0 0 0 0 0 0 0 127 0" result="hardAlpha"/>
<feOffset dy="4"/>
<feGaussianBlur stdDeviation="2"/>
<feComposite in2="hardAlpha" operator="out"/>
<feColorMatrix type="matrix" values="0 0 0 0 0 0 0 0 0 0 0 0 0 0 0 0 0 0 0.25 0"/>
<feBlend mode="normal" in2="effect1_dropShadow_104_31" result="effect2_dropShadow_104_31"/>
<feColorMatrix in="SourceAlpha" type="matrix" values="0 0 0 0 0 0 0 0 0 0 0 0 0 0 0 0 0 0 127 0" result="hardAlpha"/>
<feOffset dy="4"/>
<feGaussianBlur stdDeviation="2"/>
<feComposite in2="hardAlpha" operator="out"/>
<feColorMatrix type="matrix" values="0 0 0 0 0 0 0 0 0 0 0 0 0 0 0 0 0 0 0.25 0"/>
<feBlend mode="normal" in2="effect2_dropShadow_104_31" result="effect3_dropShadow_104_31"/>
<feBlend mode="normal" in="SourceGraphic" in2="effect3_dropShadow_104_31" result="shape"/>
</filter>
</defs>
</svg>
