<svg width="43" height="43" viewBox="0 0 43 43" fill="none" xmlns="http://www.w3.org/2000/svg">
<path d="M39.6556 43L24.6056 27.95C23.4111 28.9056 22.0375 29.662 20.4847 30.2194C18.9319 30.7768 17.2796 31.0556 15.5278 31.0556C11.188 31.0556 7.51544 29.5521 4.51022 26.5453C1.505 23.5385 0.00159259 19.866 0 15.5278C0 11.188 1.50341 7.51544 4.51022 4.51022C7.51704 1.505 11.1896 0.00159259 15.5278 0C19.8676 0 23.5409 1.50341 26.5477 4.51022C29.5545 7.51704 31.0571 11.1896 31.0556 15.5278C31.0556 17.2796 30.7768 18.9319 30.2194 20.4847C29.662 22.0375 28.9056 23.4111 27.95 24.6056L43 39.6556L39.6556 43ZM15.5278 26.2778C18.5139 26.2778 21.0525 25.233 23.1436 23.1436C25.2346 21.0541 26.2794 18.5155 26.2778 15.5278C26.2778 12.5417 25.233 10.0039 23.1436 7.91439C21.0541 5.82491 18.5155 4.77937 15.5278 4.77778C12.5417 4.77778 10.0039 5.82332 7.91439 7.91439C5.82491 10.0055 4.77937 12.5433 4.77778 15.5278C4.77778 18.5139 5.82332 21.0525 7.91439 23.1436C10.0055 25.2346 12.5433 26.2794 15.5278 26.2778Z" fill="black"/>
</svg>
