<svg width="32" height="32" viewBox="0 0 32 32" fill="none" xmlns="http://www.w3.org/2000/svg">
<path d="M14.848 10.2144C7.8464 11.5968 2.0864 12.736 2.0608 12.7488C2.0352 12.7744 1.6 14.1824 1.0752 15.8848L0.128 18.9696L2.0224 21.1456C3.0592 22.3488 4.0192 23.4624 4.16 23.6288L4.416 23.936L12.864 22.272C17.5104 21.3504 21.3376 20.608 21.376 20.608C21.4144 20.608 21.6448 21.3888 21.888 22.336C22.1312 23.2832 22.3616 24.064 22.4 24.064C22.4384 24.064 23.2448 23.2192 24.192 22.1952C26.7648 19.4048 26.5344 19.5712 28.416 19.2128L30.0288 18.9056L30.9632 15.8464C31.4752 14.1568 31.8592 12.7104 31.8336 12.6336C31.7696 12.48 28.1984 8.31996 27.7888 7.92316C27.5968 7.73116 26.5344 7.92316 14.848 10.2144ZM6.3744 13.7856C6.4 13.9776 6.5024 14.08 6.6688 14.08C6.8608 14.08 6.9248 14.1568 6.8864 14.3616C6.848 14.6176 6.7584 14.656 6.2464 14.6944C5.6576 14.7328 5.632 14.72 5.632 14.4128C5.632 14.0928 5.5936 14.08 4.928 14.08H4.224V14.656V15.232H5.312C6.2976 15.232 6.4 15.2576 6.4 15.4752C6.4 15.6032 6.5152 15.744 6.656 15.7824C6.8608 15.8336 6.912 15.9616 6.912 16.4352C6.912 16.9344 6.8736 17.024 6.6688 17.024C6.5024 17.024 6.4 17.1264 6.3744 17.3056C6.336 17.5872 6.2848 17.6 4.928 17.6C3.5712 17.6 3.52 17.5872 3.4816 17.3056C3.456 17.1264 3.3536 17.024 3.1872 17.024C3.008 17.024 2.944 16.9344 2.944 16.704C2.944 16.4096 2.9824 16.384 3.584 16.384C4.1856 16.384 4.224 16.4096 4.224 16.704C4.224 17.0112 4.2624 17.024 4.928 17.024H5.632V16.448V15.872H4.544C3.4688 15.872 3.456 15.872 3.456 15.552C3.456 15.3216 3.392 15.232 3.2 15.232C2.9824 15.232 2.944 15.1424 2.944 14.656C2.944 14.1696 2.9824 14.08 3.2 14.08C3.3664 14.08 3.456 13.9904 3.456 13.8496C3.456 13.7216 3.4944 13.568 3.5456 13.5168C3.5968 13.4784 4.2368 13.4528 4.9792 13.4656C6.272 13.504 6.336 13.5168 6.3744 13.7856ZM11.008 13.76C11.008 13.9648 11.0848 14.08 11.2 14.08C11.3408 14.08 11.392 14.2336 11.392 14.656C11.392 15.0784 11.3408 15.232 11.2 15.232C11.0848 15.232 11.008 15.3472 11.008 15.552C11.008 15.872 10.9952 15.872 9.92 15.872H8.8448L8.8064 16.7296L8.768 17.6L8.2944 17.6384L7.808 17.6768V15.8848C7.808 14.3616 7.8336 14.08 8 14.08C8.1152 14.08 8.192 13.9648 8.192 13.76V13.44H9.6H11.008V13.76ZM14.9504 13.7856C14.976 13.9776 15.0784 14.08 15.2448 14.08C15.3984 14.08 15.488 14.1696 15.488 14.336C15.488 14.4768 15.5776 14.592 15.68 14.592C15.8464 14.592 15.872 14.848 15.872 16.128V17.664H15.36H14.848V17.088V16.512H14.016H13.184V17.088V17.664H12.672H12.16V16.128C12.16 14.848 12.1984 14.592 12.352 14.592C12.4544 14.592 12.544 14.4768 12.544 14.336C12.544 14.1696 12.6336 14.08 12.8 14.08C12.9664 14.08 13.056 13.9904 13.056 13.8496C13.056 13.4784 13.184 13.4272 14.08 13.4656C14.8352 13.504 14.912 13.5296 14.9504 13.7856ZM20.224 13.76C20.224 13.9648 20.3008 14.08 20.416 14.08C20.5568 14.08 20.608 14.2336 20.608 14.656C20.608 15.0784 20.5568 15.232 20.416 15.232C20.3136 15.232 20.224 15.3472 20.224 15.4752C20.224 15.6416 20.1216 15.744 19.9424 15.7696C19.7504 15.7952 19.6352 15.9104 19.6096 16.0896C19.5712 16.3328 19.6224 16.384 19.8912 16.384C20.16 16.384 20.224 16.448 20.224 16.704C20.224 16.96 20.288 17.024 20.5568 17.024C20.8256 17.024 20.8768 17.0752 20.8384 17.3056C20.8 17.5616 20.7104 17.6 20.1984 17.6384C19.6096 17.6768 19.584 17.664 19.584 17.3568C19.584 17.1136 19.52 17.024 19.328 17.024C19.1616 17.024 19.072 16.9344 19.072 16.768C19.072 16.6016 18.9824 16.512 18.816 16.512C18.624 16.512 18.56 16.4224 18.56 16.192C18.56 15.936 18.496 15.872 18.24 15.872C17.9328 15.872 17.92 15.8976 17.92 16.7808V17.6768L17.4464 17.6384L16.96 17.6L16.9216 15.8336C16.896 14.144 16.896 14.08 17.152 14.08C17.344 14.08 17.408 13.9904 17.408 13.76V13.44H18.816H20.224V13.76ZM24.832 13.76C24.832 14.0544 24.7808 14.08 24.256 14.08H23.68V15.8848V17.6768L23.1424 17.6384L22.592 17.6L22.5536 15.8336L22.5152 14.08H21.952C21.4272 14.08 21.376 14.0544 21.376 13.76V13.44H23.104H24.832V13.76ZM28.288 13.76C28.288 13.9904 28.352 14.08 28.544 14.08C28.7104 14.08 28.8 14.1696 28.8 14.336C28.8 14.4768 28.8896 14.592 28.992 14.592C29.1584 14.592 29.184 14.848 29.184 16.1408V17.6768L28.7104 17.6384C28.2368 17.6 28.224 17.5872 28.1856 17.0496L28.1472 16.512H27.3152H26.496V17.1008V17.6768L26.0224 17.6384L25.536 17.6L25.4976 16.0896C25.472 14.8096 25.4976 14.592 25.664 14.592C25.7664 14.592 25.856 14.4768 25.856 14.336C25.856 14.144 25.9456 14.08 26.176 14.08C26.432 14.08 26.496 14.016 26.496 13.76C26.496 13.4528 26.5216 13.44 27.392 13.44C28.2624 13.44 28.288 13.4528 28.288 13.76Z" fill="black"/>
<path d="M8.832 14.6559V15.2319H9.6H10.368V14.6559V14.0799H9.6H8.832V14.6559Z" fill="black"/>
<path d="M13.7984 14.3615C13.7728 14.5535 13.6576 14.6687 13.4784 14.6943C13.2352 14.7327 13.184 14.8223 13.184 15.2447V15.7439H14.016H14.848V15.2447C14.848 14.8223 14.7968 14.7327 14.5664 14.6943C14.3744 14.6687 14.2592 14.5535 14.2336 14.3615C14.208 14.2079 14.1056 14.0799 14.016 14.0799C13.9264 14.0799 13.824 14.2079 13.7984 14.3615Z" fill="black"/>
<path d="M18.0096 14.1695C17.9584 14.2079 17.92 14.4767 17.92 14.7455V15.2319H18.752H19.584V14.6559V14.0799H18.8416C18.432 14.0799 18.048 14.1183 18.0096 14.1695Z" fill="black"/>
<path d="M27.136 14.3999C27.136 14.6559 27.072 14.7199 26.816 14.7199C26.5344 14.7199 26.496 14.7711 26.496 15.2319V15.7439H27.328H28.16V15.2319C28.16 14.8095 28.1216 14.7199 27.904 14.7199C27.712 14.7199 27.648 14.6303 27.648 14.3999C27.648 14.1695 27.584 14.0799 27.392 14.0799C27.2 14.0799 27.136 14.1695 27.136 14.3999Z" fill="black"/>
<path d="M20.2624 22.464C20.096 22.6304 19.968 22.8352 19.968 22.8992C19.968 22.9632 19.8912 23.0528 19.8144 23.0784C19.6864 23.1296 19.6864 23.1552 19.8144 23.1552C19.8912 23.168 19.968 23.232 19.968 23.296C19.968 23.5136 20.5696 24.064 20.8 24.064C21.0816 24.064 21.0432 23.9616 20.608 23.552C20.16 23.1296 20.1344 23.0272 20.48 22.784C20.6208 22.6816 20.736 22.528 20.736 22.4512C20.736 22.3616 20.8128 22.2592 20.9024 22.2336C20.9792 22.1952 20.9408 22.1568 20.8 22.1568C20.6592 22.1568 20.416 22.2976 20.2624 22.464Z" fill="black"/>
<path d="M24.4224 23.0528C23.5264 23.9616 23.4496 24.064 23.68 24.064C23.8208 24.064 25.6 22.336 25.6 22.208C25.6 21.9776 25.1648 22.2848 24.4224 23.0528Z" fill="black"/>
<path d="M26.4192 22.5792C26.6752 22.8224 26.88 23.0656 26.88 23.104C26.88 23.232 26.5216 23.552 26.3808 23.552C26.304 23.552 26.24 23.6288 26.24 23.7312C26.24 23.8336 26.1632 23.9488 26.0864 23.9744C25.984 24.0128 26.0096 24.0512 26.1504 24.0512C26.2784 24.064 26.5984 23.8464 26.8544 23.5776L27.328 23.104L26.8544 22.6176C26.5856 22.3616 26.2784 22.144 26.1632 22.144C26.0096 22.144 26.0864 22.272 26.4192 22.5792Z" fill="black"/>
</svg>
