<svg width="66" height="50" viewBox="0 0 66 50" fill="none" xmlns="http://www.w3.org/2000/svg">
<path d="M65.1786 37.8704H55.3119L53.1908 50L46.3386 37.8704H20.3683V30.9344H47.0578V9.15548H65.1786V37.8704ZM44.8103 0V28.7149H18.8414L11.9878 40.8487L9.86528 28.7149H0V0H44.8103ZM15.8345 19.3575C15.8345 17.951 14.1127 17.247 13.1058 18.2413C12.0989 19.2357 12.8118 20.9361 14.236 20.9361C15.1189 20.9361 15.8346 20.2293 15.8346 19.3575H15.8345ZM24.3955 19.3575C24.3859 17.9536 22.6649 17.2597 21.663 18.2556C20.6613 19.2516 21.3755 20.9466 22.797 20.9466C23.684 20.9466 24.4014 20.2335 24.3955 19.3575ZM32.9565 19.3575C32.9565 17.951 31.2347 17.247 30.2278 18.2413C29.2208 19.2357 29.9338 20.9361 31.3581 20.9361C32.2408 20.9361 32.9565 20.2293 32.9565 19.3575Z" fill="black"/>
</svg>
