<svg width="124" height="124" viewBox="0 0 124 124" fill="none" xmlns="http://www.w3.org/2000/svg">
<g filter="url(#filter0_d_215_30)">
<circle cx="62" cy="62" r="56" fill="#EEEEEE"/>
</g>
<path d="M94.1786 69.8704H84.3119L82.1908 82L75.3386 69.8704H49.3683V62.9344H76.0578V41.1555H94.1786V69.8704ZM73.8103 32V60.7149H47.8414L40.9878 72.8487L38.8653 60.7149H29V32H73.8103ZM44.8345 51.3575C44.8345 49.951 43.1127 49.247 42.1058 50.2413C41.0989 51.2357 41.8118 52.9361 43.236 52.9361C44.1189 52.9361 44.8346 52.2293 44.8346 51.3575H44.8345ZM53.3955 51.3575C53.3859 49.9536 51.6649 49.2597 50.663 50.2556C49.6613 51.2516 50.3755 52.9466 51.797 52.9466C52.684 52.9466 53.4014 52.2335 53.3955 51.3575ZM61.9565 51.3575C61.9565 49.951 60.2347 49.247 59.2278 50.2413C58.2208 51.2357 58.9338 52.9361 60.3581 52.9361C61.2408 52.9361 61.9565 52.2293 61.9565 51.3575Z" fill="black"/>
<path d="M41.5682 87.392V85.3636H51.125V87.392H47.5625V97H45.1307V87.392H41.5682ZM53.2827 97H50.6463L54.6634 85.3636H57.8338L61.8452 97H59.2088L56.294 88.0227H56.2031L53.2827 97ZM53.1179 92.4261H59.3452V94.3466H53.1179V92.4261ZM63.2457 97V85.3636H65.706V94.9716H70.6946V97H63.2457ZM72.3239 97V85.3636H74.7841V90.4943H74.9375L79.125 85.3636H82.0739L77.7557 90.5739L82.125 97H79.1818L75.9943 92.2159L74.7841 93.6932V97H72.3239Z" fill="black"/>
<defs>
<filter id="filter0_d_215_30" x="0" y="0" width="124" height="124" filterUnits="userSpaceOnUse" color-interpolation-filters="sRGB">
<feFlood flood-opacity="0" result="BackgroundImageFix"/>
<feColorMatrix in="SourceAlpha" type="matrix" values="0 0 0 0 0 0 0 0 0 0 0 0 0 0 0 0 0 0 127 0" result="hardAlpha"/>
<feMorphology radius="1" operator="dilate" in="SourceAlpha" result="effect1_dropShadow_215_30"/>
<feOffset/>
<feGaussianBlur stdDeviation="2.5"/>
<feComposite in2="hardAlpha" operator="out"/>
<feColorMatrix type="matrix" values="0 0 0 0 0 0 0 0 0 0 0 0 0 0 0 0 0 0 0.25 0"/>
<feBlend mode="normal" in2="BackgroundImageFix" result="effect1_dropShadow_215_30"/>
<feBlend mode="normal" in="SourceGraphic" in2="effect1_dropShadow_215_30" result="shape"/>
</filter>
</defs>
</svg>
