<svg width="44" height="38" viewBox="0 0 44 38" fill="none" xmlns="http://www.w3.org/2000/svg">
<path d="M22.1833 29.3708L22 29.5292L21.7983 29.3708C13.09 22.5467 7.33333 18.0342 7.33333 13.4583C7.33333 10.2917 10.0833 7.91667 13.75 7.91667C16.5733 7.91667 19.3233 9.5 20.295 11.6533H23.705C24.6767 9.5 27.4267 7.91667 30.25 7.91667C33.9167 7.91667 36.6667 10.2917 36.6667 13.4583C36.6667 18.0342 30.91 22.5467 22.1833 29.3708ZM30.25 4.75C27.06 4.75 23.9983 6.0325 22 8.04333C20.0017 6.0325 16.94 4.75 13.75 4.75C8.10333 4.75 3.66666 8.56583 3.66666 13.4583C3.66666 19.4275 9.9 24.32 19.3417 31.7142L22 33.8042L24.6583 31.7142C34.1 24.32 40.3333 19.4275 40.3333 13.4583C40.3333 8.56583 35.8967 4.75 30.25 4.75Z" fill="black"/>
</svg>
