<svg width="10" height="10" viewBox="0 0 10 10" fill="none" xmlns="http://www.w3.org/2000/svg">
<g clip-path="url(#clip0_207_50)">
<path d="M4.99999 9.16665C4.42361 9.16665 3.88194 9.0572 3.375 8.83831C2.86805 8.61942 2.42708 8.32262 2.05208 7.9479C1.67708 7.5729 1.38027 7.13192 1.16166 6.62498C0.943051 6.11803 0.833606 5.57637 0.833328 4.99998C0.833328 4.42359 0.942773 3.88192 1.16166 3.37498C1.38055 2.86804 1.67736 2.42706 2.05208 2.05206C2.42708 1.67706 2.86805 1.38026 3.375 1.16165C3.88194 0.943035 4.42361 0.833591 4.99999 0.833313C5.57638 0.833313 6.11805 0.942757 6.62499 1.16165C7.13194 1.38054 7.57291 1.67734 7.94791 2.05206C8.32291 2.42706 8.61986 2.86804 8.83874 3.37498C9.05763 3.88192 9.16694 4.42359 9.16666 4.99998C9.16666 5.57637 9.05722 6.11803 8.83833 6.62498C8.61944 7.13192 8.32263 7.5729 7.94791 7.9479C7.57291 8.3229 7.13194 8.61984 6.62499 8.83873C6.11805 9.05762 5.57638 9.16692 4.99999 9.16665Z" fill="#23C146"/>
</g>
<defs>
<clipPath id="clip0_207_50">
<rect width="10" height="10" fill="white"/>
</clipPath>
</defs>
</svg>
