<svg width="17" height="17" viewBox="0 0 17 17" fill="none" xmlns="http://www.w3.org/2000/svg">
<path d="M8.49999 15.5834C7.52013 15.5834 6.5993 15.3973 5.73749 15.0252C4.87568 14.6531 4.12603 14.1485 3.48853 13.5115C2.85103 12.874 2.34646 12.1243 1.97482 11.2625C1.60318 10.4007 1.41713 9.47988 1.41666 8.50002C1.41666 7.52016 1.60271 6.59933 1.97482 5.73752C2.34693 4.87571 2.8515 4.12606 3.48853 3.48856C4.12603 2.85106 4.87568 2.34649 5.73749 1.97485C6.5993 1.60321 7.52013 1.41716 8.49999 1.41669C9.47985 1.41669 10.4007 1.60274 11.2625 1.97485C12.1243 2.34696 12.8739 2.85153 13.5114 3.48856C14.1489 4.12606 14.6538 4.87571 15.0259 5.73752C15.398 6.59933 15.5838 7.52016 15.5833 8.50002C15.5833 9.47988 15.3973 10.4007 15.0252 11.2625C14.653 12.1243 14.1485 12.874 13.5114 13.5115C12.8739 14.149 12.1243 14.6538 11.2625 15.0259C10.4007 15.398 9.47985 15.5838 8.49999 15.5834Z" fill="#23C146"/>
</svg>
